#N canvas 289 163 800 334 10;
#X declare -lib mrpeach/packOSC;
#X declare -lib mrpeach/udpreceive;
#X declare -lib mrpeach/unpackOSC;
#X declare -lib mrpeach/routeOSC;
#X declare -lib mrpeach/udpsend;
#X obj 75 306 s /toIphone;
#X obj 422 278 import mrpeach/packOSC;
#X obj 247 305 import mrpeach/udpreceive;
#X obj 423 304 import mrpeach/unpackOSC;
#X obj 421 257 import mrpeach/routeOSC;
#X obj 247 279 import mrpeach/udpsend;
#X obj -142 128 entry 193 36 grey70 black;
#X obj -69 214 route symbol;
#X obj -68 251 prepend connect;
#X obj 41 285 prepend;
#X msg 67 258 9999;
#X obj 109 235 s /disco;
#X obj -150 81 cnv 15 280 100 empty empty empty 20 12 1 10 -4034 -66577
0;
#X obj 82 136 bng 15 250 50 0 empty empty empty 17 7 0 10 -262144 -1
-1;
#X obj -131 213 loadbang;
#X obj 66 189 t b b;
#X obj 107 209 delay 100;
#X msg -144 251 fontsize 30;
#X text 54 100 this Button;
#X text 60 85 and click;
#X text 85 112 I;
#X text 85 120 V;
#X text -139 89 Enter your IPod/IPhone/IPad;
#X text -139 107 IP adress (Touch-OSC Local IP);
#X obj 67 235 bang;
#X text -162 20 Based on DlightPad from Renaud Rubiano renaud@rubiano.fr
;
#N canvas 0 22 492 458 mainconversion 0;
#X msg 366 253 /pad/scene 0;
#X msg 283 232 /pad/prepa 0;
#X obj 358 205 sel 1;
#X obj 283 205 sel 1;
#X obj 40 171 route /grandmaster /checkcirc/level /pad/scene /pad/prepa
;
#X obj 40 232 i;
#X obj 40 205 * 100;
#X msg 40 259 /grandmaster/label \$1;
#X obj 6 373 s /toIphone;
#X obj 9 15 r /fromDlight;
#N canvas 114 413 1270 461 conversion 0;
#X obj 453 158 zl ecils 1;
#X obj 296 204 zl ecils 1;
#X obj 1101 295 prepend /grandmaster;
#X obj 1101 252 / 255;
#X obj 608 268 / 255;
#X obj 414 247 / 255;
#X obj 174 226 / 255;
#X obj 114 150 zl slice 1;
#X obj 82 240 / 255;
#X obj 25 153 zl slice 1;
#X obj 23 4 inlet;
#X obj 25 415 outlet;
#X obj 296 247 prepend /seq/X1;
#X obj 461 271 prepend /seq/X2;
#X obj 976 261 prepend /seq/go;
#X obj 133 46 routeOSC /sub /circ /fadeX1 /fadeX2 /seq /grandmaster
;
#X obj 616 175 routeOSC /X1 /X2 /go;
#X obj 250 300 prepend /fadeX1;
#X obj 474 308 prepend /fadeX2;
#X obj 19 267 sprintf /sub%s %f;
#X obj 141 271 sprintf /circ%s %f;
#X connect 0 0 13 0;
#X connect 0 1 4 0;
#X connect 1 0 12 0;
#X connect 1 1 5 0;
#X connect 2 0 11 0;
#X connect 3 0 2 0;
#X connect 4 0 18 0;
#X connect 5 0 17 0;
#X connect 6 0 20 1;
#X connect 7 0 20 0;
#X connect 7 1 6 0;
#X connect 8 0 19 1;
#X connect 9 0 19 0;
#X connect 9 1 8 0;
#X connect 10 0 15 0;
#X connect 12 0 11 0;
#X connect 13 0 11 0;
#X connect 14 0 11 0;
#X connect 15 0 9 0;
#X connect 15 1 7 0;
#X connect 15 2 1 0;
#X connect 15 3 0 0;
#X connect 15 4 16 0;
#X connect 15 5 3 0;
#X connect 15 6 11 0;
#X connect 16 0 12 0;
#X connect 16 1 13 0;
#X connect 16 2 14 0;
#X connect 17 0 11 0;
#X connect 18 0 11 0;
#X connect 19 0 11 0;
#X connect 20 0 11 0;
#X restore 9 42 pd conversion;
#N canvas 96 28 1331 502 conversion 0;
#X msg 0 239 /sub/kill 1;
#X obj 1070 436 prepend /checkcirc/prev;
#X obj 1124 248 sel 1;
#X obj 1033 411 prepend /checkcirc/next;
#X obj 1067 242 sel 1;
#X obj 1016 254 * 255;
#X obj 842 185 zl slice 1;
#X obj 226 322 prepend /grandmaster;
#X obj 278 263 * 255;
#X obj 415 271 * 255;
#X obj 352 276 * 255;
#X obj 196 261 * 255;
#X obj 151 195 zl slice 1;
#X obj 70 294 * 255;
#X obj 13 270 zl slice 1;
#X obj 742 294 prepend /seq;
#X msg 663 369 /seq/pause;
#X msg 575 369 /seq/goback;
#X msg 499 369 /seq/go;
#X obj 664 288 sel 1;
#X obj 575 280 sel 1;
#X obj 499 281 sel 1;
#X obj 14 1 inlet;
#X obj 12 478 outlet;
#X obj 989 384 prepend /checkcirc/level;
#X obj 415 343 prepend /seq/fadeX2;
#X obj 289 344 prepend /seq/fadeX1;
#X obj 336 160 routeOSC /fadeX1 /fadeX2 /go /goback /pause;
#X obj 1188 248 sprintf /checkcirc%s;
#X obj 842 223 sprintf /pad%s;
#X obj 1233 443 prepend;
#X msg 1232 415 1;
#X msg 1131 277 1;
#X msg 1080 286 1;
#X obj 956 290 gate;
#X obj 918 186 zl slice 1;
#X obj 149 19 routeOSC /sub /circ /grandmaster /seq /pad /checkcirc
;
#X msg 953 325 1;
#X obj 945 217 == 1;
#X obj 995 178 routeOSC /level /next /prev /launch;
#X obj 1169 288 sel 1;
#X msg 1166 322 1;
#X obj 1162 472 prepend /checkcirc/launch;
#X obj 480 88 routeOSC /blackout /freeze;
#X obj 642 185 prepend /pad/blackout;
#X obj 718 209 prepend /pad/freeze;
#X msg 739 245 /pad/freeze 1;
#X obj 16 203 routeOSC /kill;
#X obj 16 316 sprintf /sub%s %d;
#X obj 133 292 sprintf /circ%s %d;
#X obj 867 378 sprintf %s %d;
#X connect 0 0 23 0;
#X connect 1 0 23 0;
#X connect 2 0 32 0;
#X connect 3 0 23 0;
#X connect 4 0 33 0;
#X connect 5 0 24 0;
#X connect 6 0 29 0;
#X connect 6 1 38 0;
#X connect 7 0 23 0;
#X connect 8 0 7 0;
#X connect 9 0 25 0;
#X connect 10 0 26 0;
#X connect 11 0 49 1;
#X connect 12 0 49 0;
#X connect 12 1 11 0;
#X connect 13 0 48 1;
#X connect 14 0 48 0;
#X connect 14 1 13 0;
#X connect 15 0 23 0;
#X connect 16 0 23 0;
#X connect 17 0 23 0;
#X connect 18 0 23 0;
#X connect 19 0 16 0;
#X connect 20 0 17 0;
#X connect 21 0 18 0;
#X connect 22 0 36 0;
#X connect 24 0 23 0;
#X connect 25 0 23 0;
#X connect 26 0 23 0;
#X connect 27 0 10 0;
#X connect 27 1 9 0;
#X connect 27 2 21 0;
#X connect 27 3 20 0;
#X connect 27 4 19 0;
#X connect 27 5 15 0;
#X connect 28 0 30 1;
#X connect 28 0 31 0;
#X connect 29 0 50 0;
#X connect 30 0 23 0;
#X connect 31 0 30 0;
#X connect 32 0 1 0;
#X connect 33 0 3 0;
#X connect 34 0 37 0;
#X connect 35 1 34 1;
#X connect 36 0 47 0;
#X connect 36 1 12 0;
#X connect 36 2 8 0;
#X connect 36 3 27 0;
#X connect 36 4 43 0;
#X connect 36 5 39 0;
#X connect 37 0 50 1;
#X connect 38 0 34 0;
#X connect 39 0 5 0;
#X connect 39 1 4 0;
#X connect 39 2 2 0;
#X connect 39 3 40 0;
#X connect 39 4 28 0;
#X connect 40 0 41 0;
#X connect 41 0 42 0;
#X connect 42 0 23 0;
#X connect 43 0 44 0;
#X connect 43 1 45 0;
#X connect 43 2 35 0;
#X connect 43 2 6 0;
#X connect 44 0 23 0;
#X connect 45 0 23 0;
#X connect 46 0 23 0;
#X connect 47 0 0 0;
#X connect 47 1 14 0;
#X connect 48 0 23 0;
#X connect 49 0 23 0;
#X connect 50 0 23 0;
#X restore 53 103 pd conversion;
#X obj 53 130 s /toDlight;
#X obj 40 78 r /fromIphone;
#X obj 185 232 i;
#X obj 185 205 * 100;
#X msg 169 274 /check/circ/level/label \$1;
#X connect 0 0 8 0;
#X connect 1 0 8 0;
#X connect 2 0 0 0;
#X connect 3 0 1 0;
#X connect 4 0 6 0;
#X connect 4 1 15 0;
#X connect 4 2 3 0;
#X connect 4 3 2 0;
#X connect 5 0 7 0;
#X connect 6 0 5 0;
#X connect 7 0 8 0;
#X connect 9 0 10 0;
#X connect 10 0 8 0;
#X connect 11 0 12 0;
#X connect 13 0 11 0;
#X connect 13 0 4 0;
#X connect 14 0 16 0;
#X connect 15 0 14 0;
#X connect 16 0 8 0;
#X restore 481 189 pd mainconversion;
#N canvas 39 405 450 300 comToDlight 0;
#X obj 17 10 inlet;
#X obj 15 116 print /toDlight;
#X obj 15 89 gate;
#X obj 42 39 r /toDlight;
#X msg 161 62 connect localhost 7000;
#X obj 53 89 udpsend;
#X obj 60 64 packOSC;
#X msg 247 95 disconnect;
#X obj 349 64 r /disco;
#X obj 161 21 r /connectDL;
#X connect 0 0 2 0;
#X connect 2 0 1 0;
#X connect 3 0 2 1;
#X connect 3 0 6 0;
#X connect 4 0 5 0;
#X connect 6 0 5 0;
#X connect 7 0 5 0;
#X connect 8 0 7 0;
#X connect 9 0 4 0;
#X restore 245 252 pd comToDlight;
#N canvas 36 298 450 300 comFromDlight 0;
#X obj 65 41 udpreceive 7001;
#X obj 27 116 print /fromDlight;
#X obj 27 89 gate;
#X obj 65 89 s /fromDlight;
#X obj 64 64 unpackOSC;
#X obj 27 11 inlet;
#X connect 0 0 4 0;
#X connect 2 0 1 0;
#X connect 4 0 2 1;
#X connect 4 0 3 0;
#X connect 5 0 2 0;
#X restore 274 231 pd comFromDlight;
#N canvas 0 23 450 300 comToTouchOSC 0;
#X obj 16 10 inlet;
#X obj 18 187 print /toIphone;
#X obj 18 160 gate;
#X obj 39 37 r /toIphone;
#X obj 56 109 packOSC;
#X obj 56 160 udpsend;
#X msg 140 135 disconnect;
#X obj 57 67 route connect;
#X obj 232 110 r /disco;
#X obj 115 109 prepend connect;
#X connect 0 0 2 0;
#X connect 2 0 1 0;
#X connect 3 0 2 1;
#X connect 3 0 7 0;
#X connect 4 0 5 0;
#X connect 6 0 5 0;
#X connect 7 0 9 0;
#X connect 7 1 4 0;
#X connect 8 0 6 0;
#X connect 9 0 5 0;
#X restore 304 210 pd comToTouchOSC;
#N canvas 211 160 450 300 comFromTouchOSC 0;
#X obj 15 112 print /fromIphone;
#X obj 15 85 gate;
#X obj 103 85 s /fromIphone;
#X obj 68 31 udpreceive 8888;
#X obj 68 58 unpackOSC;
#X obj 15 10 inlet;
#X connect 1 0 0 0;
#X connect 3 0 4 0;
#X connect 4 0 2 0;
#X connect 4 0 1 1;
#X connect 5 0 1 0;
#X restore 334 189 pd comFromTouchOSC;
#X obj 238 81 cnv 15 380 100 empty empty empty 20 12 1 10 -232576 -66577
0;
#X text 265 89 AFFICHE LES MESSAGES VERS DLIGHT;
#X obj 244 90 tgl 15 0 empty empty empty 17 7 0 10 -262144 -1 -1 1
1;
#X text 295 109 AFFICHE LES MESSAGES PROVENANT DE DLIGHT;
#X obj 274 110 tgl 15 0 empty empty empty 17 7 0 10 -262144 -1 -1 1
1;
#X text 355 155 AFFICHE LES MESSAGES PROVENANT DE TOUCH-OSC;
#X text 325 133 AFFICHE LES MESSAGES VERS TOUCH-OSC;
#X obj 334 156 tgl 15 0 empty empty empty 17 7 0 10 -262144 -1 -1 1
1;
#X obj 304 134 tgl 15 0 empty empty empty 17 7 0 10 -262144 -1 -1 0
1;
#N canvas 0 22 450 300 (subpatch) 0;
#X coords 0 1 100 -1 760 140 1;
#X restore -155 185 graph;
#X obj 134 81 cnv 15 100 100 empty empty empty 20 12 0 14 -261682 -66577
0;
#X text 135 85 TouchOSC;
#X text 135 100 Network config;
#X text 134 163 Incomming : 9999;
#X text 135 148 Outgoing : 8888;
#X text 135 113 Host : This;
#X text 135 125 Computer IP;
#X text -163 3 PD_DLightPad 1.8;
#X text -161 36 Adapted for PureData and upgraded for DLight 3.0.4
by Frederic Nicaise frederic.nicaiseATgmail.com;
#X obj 111 259 s /connectDL;
#X connect 6 0 7 0;
#X connect 7 0 8 0;
#X connect 8 0 9 1;
#X connect 9 0 0 0;
#X connect 10 0 9 0;
#X connect 13 0 15 0;
#X connect 14 0 17 0;
#X connect 15 0 11 0;
#X connect 15 0 24 0;
#X connect 15 1 16 0;
#X connect 16 0 11 0;
#X connect 16 0 24 0;
#X connect 17 0 6 0;
#X connect 24 0 6 0;
#X connect 24 0 10 0;
#X connect 24 0 50 0;
#X connect 33 0 27 0;
#X connect 35 0 28 0;
#X connect 38 0 30 0;
#X connect 39 0 29 0;
#X coords 0 0 1 1 85 60 0;
